<?xml version="1.0" encoding="utf-8"?>
<!-- Generator: Adobe Illustrator 16.0.0, SVG Export Plug-In . SVG Version: 6.00 Build 0)  -->
<!DOCTYPE svg PUBLIC "-//W3C//DTD SVG 1.1//EN" "http://www.w3.org/Graphics/SVG/1.1/DTD/svg11.dtd">
<svg version="1.1" id="Layer_1" xmlns="http://www.w3.org/2000/svg" xmlns:xlink="http://www.w3.org/1999/xlink" x="0px" y="0px"
	 width="378.667px" height="293.333px" viewBox="0 0 378.667 293.333" enable-background="new 0 0 378.667 293.333"
	 xml:space="preserve">
<polyline fill="none" stroke="#FFFFFF" stroke-width="0.5" stroke-linejoin="round" stroke-miterlimit="10" points="29.25,259.75 
	29.25,3.249 356.251,3.249 356.251,259.75 29.25,259.75 "/>
<line fill="none" stroke="#000000" stroke-width="0.3333" stroke-linejoin="round" stroke-miterlimit="10" stroke-dasharray="0.5,4" x1="29.25" y1="259.75" x2="29.25" y2="3.249"/>
<line fill="none" stroke="#000000" stroke-width="0.3333" stroke-linejoin="round" stroke-miterlimit="10" stroke-dasharray="0.5,4" x1="29.25" y1="3.249" x2="29.25" y2="3.249"/>
<line fill="none" stroke="#000000" stroke-width="0.3333" stroke-linejoin="round" stroke-miterlimit="10" stroke-dasharray="0.5,4" x1="75.75" y1="3.249" x2="75.75" y2="3.249"/>
<line fill="none" stroke="#000000" stroke-width="0.3333" stroke-linejoin="round" stroke-miterlimit="10" stroke-dasharray="0.5,4" x1="122.25" y1="3.249" x2="122.25" y2="3.249"/>
<line fill="none" stroke="#000000" stroke-width="0.3333" stroke-linejoin="round" stroke-miterlimit="10" stroke-dasharray="0.5,4" x1="168.75" y1="3.249" x2="168.75" y2="3.249"/>
<line fill="none" stroke="#000000" stroke-width="0.3333" stroke-linejoin="round" stroke-miterlimit="10" stroke-dasharray="0.5,4" x1="216.001" y1="3.249" x2="216.001" y2="3.249"/>
<line fill="none" stroke="#000000" stroke-width="0.3333" stroke-linejoin="round" stroke-miterlimit="10" stroke-dasharray="0.5,4" x1="262.501" y1="3.249" x2="262.501" y2="3.249"/>
<line fill="none" stroke="#000000" stroke-width="0.3333" stroke-linejoin="round" stroke-miterlimit="10" stroke-dasharray="0.5,4" x1="309.001" y1="3.249" x2="309.001" y2="3.249"/>
<line fill="none" stroke="#000000" stroke-width="0.3333" stroke-linejoin="round" stroke-miterlimit="10" stroke-dasharray="0.5,4" x1="356.251" y1="3.249" x2="356.251" y2="3.249"/>
<line fill="none" stroke="#000000" stroke-width="0.3333" stroke-linejoin="round" stroke-miterlimit="10" stroke-dasharray="0.5,4" x1="356.251" y1="239.5" x2="356.251" y2="239.5"/>
<line fill="none" stroke="#000000" stroke-width="0.3333" stroke-linejoin="round" stroke-miterlimit="10" stroke-dasharray="0.5,4" x1="356.251" y1="205.749" x2="356.251" y2="205.749"/>
<line fill="none" stroke="#000000" stroke-width="0.3333" stroke-linejoin="round" stroke-miterlimit="10" stroke-dasharray="0.5,4" x1="356.251" y1="171.999" x2="356.251" y2="171.999"/>
<line fill="none" stroke="#000000" stroke-width="0.3333" stroke-linejoin="round" stroke-miterlimit="10" stroke-dasharray="0.5,4" x1="356.251" y1="138.249" x2="356.251" y2="138.249"/>
<line fill="none" stroke="#000000" stroke-width="0.3333" stroke-linejoin="round" stroke-miterlimit="10" stroke-dasharray="0.5,4" x1="356.251" y1="104.499" x2="356.251" y2="104.499"/>
<line fill="none" stroke="#000000" stroke-width="0.3333" stroke-linejoin="round" stroke-miterlimit="10" stroke-dasharray="0.5,4" x1="356.251" y1="70.749" x2="356.251" y2="70.749"/>
<line fill="none" stroke="#000000" stroke-width="0.3333" stroke-linejoin="round" stroke-miterlimit="10" stroke-dasharray="0.5,4" x1="356.251" y1="36.999" x2="356.251" y2="36.999"/>
<line fill="none" stroke="#000000" stroke-width="0.3333" stroke-linejoin="round" stroke-miterlimit="10" stroke-dasharray="0.5,4" x1="356.251" y1="3.249" x2="356.251" y2="3.249"/>
<line fill="none" stroke="#000000" stroke-width="0.5" stroke-linejoin="round" stroke-miterlimit="10" x1="29.25" y1="259.75" x2="356.251" y2="259.75"/>
<line fill="none" stroke="#000000" stroke-width="0.5" stroke-linejoin="round" stroke-miterlimit="10" x1="29.25" y1="259.75" x2="29.25" y2="3.249"/>
<line fill="none" stroke="#000000" stroke-width="0.5" stroke-linejoin="round" stroke-miterlimit="10" x1="29.25" y1="259.75" x2="29.25" y2="256"/>
<text transform="matrix(1 0 0 1 27 271)" font-family="'MyriadPro-Regular'" font-size="12">1</text>
<text transform="matrix(1 0 0 1 73.5 271)" font-family="'MyriadPro-Regular'" font-size="12">2</text>
<text transform="matrix(1 0 0 1 120 271)" font-family="'MyriadPro-Regular'" font-size="12">3</text>
<text transform="matrix(1 0 0 1 166.5 271)" font-family="'MyriadPro-Regular'" font-size="12">4</text>
<text transform="matrix(1 0 0 1 213.751 271)" font-family="'MyriadPro-Regular'" font-size="12">5</text>
<text transform="matrix(1 0 0 1 260.251 271)" font-family="'MyriadPro-Regular'" font-size="12">6</text>
<text transform="matrix(1 0 0 1 306.751 271)" font-family="'MyriadPro-Regular'" font-size="12">7</text>
<text transform="matrix(1 0 0 1 351.1885 271)" font-family="'MyriadPro-Regular'" font-size="12">8</text>
<text transform="matrix(1 0 0 1 21 242.5)" font-family="'MyriadPro-Regular'" font-size="12">1</text>
<text transform="matrix(1 0 0 1 21 208.749)" font-family="'MyriadPro-Regular'" font-size="12">2</text>
<text transform="matrix(1 0 0 1 21 174.999)" font-family="'MyriadPro-Regular'" font-size="12">3</text>
<text transform="matrix(1 0 0 1 21 141.249)" font-family="'MyriadPro-Regular'" font-size="12">4</text>
<text transform="matrix(1 0 0 1 21 107.499)" font-family="'MyriadPro-Regular'" font-size="12">5</text>
<text transform="matrix(1 0 0 1 21 73.749)" font-family="'MyriadPro-Regular'" font-size="12">6</text>
<text transform="matrix(1 0 0 1 21 39.999)" font-family="'MyriadPro-Regular'" font-size="12">7</text>
<text transform="matrix(1 0 0 1 21 11.8311)" font-family="'MyriadPro-Regular'" font-size="12">8</text>
<polygon fill="none" stroke="#000000" stroke-width="2" stroke-miterlimit="10" points="332.251,22.749 342.751,22.749 
	337.501,14.499 "/>
<polygon fill="none" stroke="#0000FF" stroke-width="2" stroke-miterlimit="10" points="324.001,122.499 328.501,117.249 
	324.001,111.999 319.501,117.249 "/>
<rect x="300.751" y="4.749" fill="none" stroke="#FF0000" stroke-width="2" stroke-miterlimit="10" width="7.5" height="7.5"/>
<polygon fill="none" stroke="#0000FF" stroke-width="2" stroke-miterlimit="10" points="244.501,233.5 247.501,233.5 
	248.251,231.25 249.001,233.5 252.001,233.5 250.501,235.75 252.001,238 249.001,238 248.251,240.25 247.501,238 244.501,238 
	246.001,235.75 "/>
<polygon fill="none" stroke="#FF0000" stroke-width="2" stroke-miterlimit="10" points="149.25,136.749 157.5,141.999 
	157.5,131.499 "/>
<path fill="none" stroke="#000000" stroke-width="2" stroke-miterlimit="10" d="M77.25,252.25c0,2.485-2.015,4.5-4.5,4.5
	s-4.5-2.015-4.5-4.5c0-2.486,2.015-4.5,4.5-4.5S77.25,249.764,77.25,252.25"/>
<text transform="matrix(1 0 0 1 77.3506 289)" font-family="'MyriadPro-Regular'" font-size="14">Number of Models Evaluated (log scale)</text>
<text transform="matrix(0 -1 1 0 13.5 228.3359)" font-family="'MyriadPro-Regular'" font-size="14">Number of GPUs−days (log scale)</text>
<rect x="-25.5" y="-20.751" fill="none" width="421.501" height="315.001"/>
<line fill="none" stroke="#000000" stroke-width="0.5" stroke-linejoin="round" stroke-miterlimit="10" x1="356.75" y1="260.25" x2="356.75" y2="3.749"/>
<line fill="none" stroke="#000000" stroke-width="0.5" stroke-linejoin="round" stroke-miterlimit="10" x1="29.25" y1="3.25" x2="356.251" y2="3.25"/>
<g>
	<g>
		<line fill="none" stroke="#000000" stroke-linejoin="round" x1="344.249" y1="166.078" x2="344.249" y2="232.902"/>
		<g>
			<polygon points="339.263,231.443 344.249,240.078 349.235,231.443 			"/>
		</g>
	</g>
</g>
<g>
	<g>
		<line fill="none" stroke="#000000" stroke-linejoin="round" x1="344.084" y1="166.078" x2="279.592" y2="166.078"/>
		<g>
			<polygon points="281.051,161.092 272.415,166.078 281.051,171.064 			"/>
		</g>
	</g>
</g>
<g>
	<text transform="matrix(1 0 0 1 254.9941 37.0967)" font-family="'MyriadPro-Regular'" font-size="12">94.51</text>
	<text transform="matrix(1 0 0 1 216.4785 50.5967)" font-family="'MyriadPro-Regular'" font-size="12">10</text>
	<text transform="matrix(1 0 0 1 254.9941 50.5967)" font-family="'MyriadPro-Regular'" font-size="12">93.08</text>
	<text transform="matrix(1 0 0 1 213.4004 64.0957)" font-family="'MyriadPro-Regular'" font-size="12">250</text>
	<text transform="matrix(1 0 0 1 254.9941 64.0957)" font-family="'MyriadPro-Regular'" font-size="12">94.60</text>
	<text transform="matrix(1 0 0 1 219.5557 78.5957)" font-family="'MyriadPro-Regular'" font-size="12">1</text>
	<text transform="matrix(1 0 0 1 254.9941 78.5957)" font-family="'MyriadPro-Regular'" font-size="12">94.47</text>
	<text transform="matrix(1 0 0 1 219.5557 92.0957)" font-family="'MyriadPro-Regular'" font-size="12">5</text>
	<text transform="matrix(1 0 0 1 254.9941 92.0957)" font-family="'MyriadPro-Regular'" font-size="12">94.80</text>
	
		<line fill="none" stroke="#000000" stroke-width="0.398" stroke-miterlimit="10" x1="41.833" y1="11.788" x2="293.25" y2="11.788"/>
	<line fill="none" stroke="#000000" stroke-width="0.398" stroke-miterlimit="10" x1="41.833" y1="26.134" x2="293" y2="26.134"/>
	
		<line fill="none" stroke="#000000" stroke-width="0.398" stroke-miterlimit="10" x1="41.833" y1="96.271" x2="293.25" y2="96.271"/>
	<line fill="none" stroke="#000000" stroke-width="0.398" stroke-miterlimit="10" x1="42" y1="110.493" x2="293.25" y2="110.493"/>
	<polygon fill="none" stroke="#000000" stroke-width="2" stroke-miterlimit="10" points="44.25,36.415 54.75,36.415 49.5,28.165 	
		"/>
	<polygon fill="none" stroke="#0000FF" stroke-width="2" stroke-miterlimit="10" points="49.5,52.415 54,47.165 49.5,41.915 
		45,47.165 	"/>
	<rect x="45.75" y="56.665" fill="none" stroke="#EC2024" stroke-width="2" stroke-miterlimit="10" width="7.5" height="7.5"/>
	<polygon fill="none" stroke="#0000FF" stroke-width="2" stroke-miterlimit="10" points="45.75,71.666 48.75,71.666 49.5,69.416 
		50.25,71.666 53.25,71.666 51.75,73.916 53.25,76.166 50.25,76.166 49.5,78.416 48.75,76.166 45.75,76.166 47.25,73.916 	"/>
	<polygon fill="none" stroke="#EC2024" stroke-width="2" stroke-miterlimit="10" points="45.325,88.335 53.471,93.744 
		53.676,83.246 	"/>
	<path fill="none" stroke="#000000" stroke-width="2" stroke-miterlimit="10" d="M54,103.582c0,2.485-2.016,4.5-4.5,4.5
		s-4.5-2.015-4.5-4.5c0-2.486,2.016-4.5,4.5-4.5S54,101.096,54,103.582"/>
	<text transform="matrix(1 0 0 1 58.0762 36.7637)" font-family="'MyriadPro-Regular'" font-size="12">Zoph</text>
	<text transform="matrix(1 0 0 1 162.0762 37.0967)" font-family="'MyriadPro-Regular'" font-size="12">20, 000</text>
	<text transform="matrix(1 0 0 1 213.4004 37.0967)" font-family="'MyriadPro-Regular'" font-size="12">800</text>
	<text transform="matrix(1 0 0 1 58.0762 49.8467)" font-family="'MyriadPro-Regular'" font-size="12">Baker</text>
	<text transform="matrix(1 0 0 1 165.8262 50.5967)" font-family="'MyriadPro-Regular'" font-size="12">1,500</text>
	<text transform="matrix(1 0 0 1 58.0762 63.5957)" font-family="'MyriadPro-Regular'" font-size="12">Real</text>
	<text transform="matrix(1 0 0 1 165.8262 64.0957)" font-family="'MyriadPro-Regular'" font-size="12">1,000</text>
	<text transform="matrix(1 0 0 1 58.0762 78.0957)" font-family="'MyriadPro-Regular'" font-size="12">Brock</text>
	<text transform="matrix(1 0 0 1 171.0762 78.5957)" font-family="'MyriadPro-Regular'" font-size="12">300</text>
	<text transform="matrix(1 0 0 1 58.0762 92.0957)" font-family="'MyriadPro-Regular'" font-size="12">Elsken</text>
	<text transform="matrix(1 0 0 1 174.0762 92.0957)" font-family="'MyriadPro-Regular'" font-size="12">40</text>
	<text transform="matrix(1 0 0 1 77.8457 107.0957)" font-family="'MyriadPro-Regular'" font-size="12">Ours</text>
	<text transform="matrix(1 0 0 1 177.0762 106.8457)" font-family="'MyriadPro-Regular'" font-size="12">7</text>
	<text transform="matrix(1 0 0 1 219.5557 106.8457)" font-family="'MyriadPro-Regular'" font-size="12">1</text>
	<text transform="matrix(1 0 0 1 254.9941 106.8457)" font-family="'MyriadPro-Regular'" font-size="12">94.63</text>
	<text transform="matrix(1 0 0 1 94.3262 36.7637)" font-family="'MyriadPro-Regular'" font-size="12">CVPR</text>
	<text transform="matrix(1 0 0 1 94.3262 49.8467)" font-family="'MyriadPro-Regular'" font-size="12">ICLR</text>
	<text transform="matrix(1 0 0 1 94.3262 63.5957)" font-family="'MyriadPro-Regular'" font-size="12">ICML</text>
	<text transform="matrix(1 0 0 1 94.3262 78.0957)" font-family="'MyriadPro-Regular'" font-size="12">ICLR</text>
	<text transform="matrix(1 0 0 1 94.3262 92.0957)" font-family="'MyriadPro-Regular'" font-size="12">ICLR</text>
	<text transform="matrix(1 0 0 1 155.8262 22.8467)" font-family="'MyriadPro-Regular'" font-size="12">#Models</text>
	<text transform="matrix(1 0 0 1 206.3262 22.8467)" font-family="'MyriadPro-Regular'" font-size="12">#GPUs</text>
	<text transform="matrix(1 0 0 1 245.8262 22.8467)" font-family="'MyriadPro-Regular'" font-size="12">Accuracy</text>
	<text transform="matrix(1 0 0 1 124.9927 36.7646)" font-family="'MyriadPro-Regular'" font-size="12">2018</text>
	<text transform="matrix(1 0 0 1 125.3262 49.8467)" font-family="'MyriadPro-Regular'" font-size="12">2018</text>
	<text transform="matrix(1 0 0 1 124.6592 63.5967)" font-family="'MyriadPro-Regular'" font-size="12">2018</text>
	<text transform="matrix(1 0 0 1 125.9927 78.0967)" font-family="'MyriadPro-Regular'" font-size="12">2018</text>
	<text transform="matrix(1 0 0 1 124.6597 92.0957)" font-family="'MyriadPro-Regular'" font-size="12">2018</text>
</g>
<text transform="matrix(1 0 0 1 272.415 182.5381)" font-family="'MyriadPro-Regular'" font-size="12">Lower Better</text>
<text transform="matrix(1 0 0 1 272.415 231.2051)" font-family="'MyriadPro-Regular'" font-size="12">Lower Better</text>
</svg>
